<?xml version="1.0" encoding="UTF-8" standalone="no"?>
<!DOCTYPE svg PUBLIC "-//W3C//DTD SVG 1.1//EN"
 "http://www.w3.org/Graphics/SVG/1.1/DTD/svg11.dtd">
<!-- Generated by graphviz version 2.40.1 (20161225.0304)
 -->
<!-- Title: cohort_flow_chart Pages: 1 -->
<svg width="819pt" height="536pt"
 viewBox="0.00 0.00 819.00 536.00" xmlns="http://www.w3.org/2000/svg" xmlns:xlink="http://www.w3.org/1999/xlink">
<g id="graph0" class="graph" transform="scale(1 1) rotate(0) translate(4 532)">
<title>cohort_flow_chart</title>
<polygon fill="#ffffff" stroke="transparent" points="-4,4 -4,-532 815,-532 815,4 -4,4"/>
<!-- aa0 -->
<!-- ab1 -->
<g id="node3" class="node">
<title>ab1</title>
<polygon fill="#ffffff" stroke="#000000" points="522,-528 306,-528 306,-470 522,-470 522,-528"/>
<text text-anchor="middle" x="414" y="-494.8" font-family="Helvetica,sans-Serif" font-weight="bold" font-size="14.00" fill="#000000">CPRD&#45;UK</text>
</g>
<!-- aa0&#45;&gt;ab1 -->
<!-- desc1 -->
<g id="node20" class="node">
<title>desc1</title>
<polygon fill="#ffffff" stroke="#000000" points="270,-434 18,-434 18,-376 270,-376 270,-434"/>
<text text-anchor="middle" x="144" y="-400.8" font-family="Helvetica,sans-Serif" font-size="14.00" fill="#000000">Antibiotic users in the study period</text>
</g>
<!-- aa0&#45;&gt;desc1 -->
<!-- aa1 -->
<g id="node2" class="node">
<title>aa1</title>
<polygon fill="#ffffff" stroke="#000000" points="756,-528 540,-528 540,-470 756,-470 756,-528"/>
<text text-anchor="middle" x="648" y="-494.8" font-family="Helvetica,sans-Serif" font-weight="bold" font-size="14.00" fill="#000000">PHARMO&#45;NL</text>
</g>
<!-- a1 -->
<g id="node4" class="node">
<title>a1</title>
<polygon fill="#d8efeb" stroke="#000000" points="756,-434 540,-434 540,-376 756,-376 756,-434"/>
<text text-anchor="middle" x="648" y="-400.8" font-family="Helvetica,sans-Serif" font-size="14.00" fill="#000000">n = 920,525</text>
</g>
<!-- aa1&#45;&gt;a1 -->
<!-- a3 -->
<g id="node9" class="node">
<title>a3</title>
<polygon fill="#d8efeb" stroke="#000000" points="522,-434 306,-434 306,-376 522,-376 522,-434"/>
<text text-anchor="middle" x="414" y="-400.8" font-family="Helvetica,sans-Serif" font-size="14.00" fill="#000000">n = 4,991,015</text>
</g>
<!-- ab1&#45;&gt;a3 -->
<!-- b1 -->
<!-- a1&#45;&gt;b1 -->
<g id="edge1" class="edge">
<title>a1&#45;&gt;b1</title>
<path fill="none" stroke="#000000" d="M648,-375.7731C648,-350.3349 648,-316.7507 648,-311.6585"/>
</g>
<!-- e1 -->
<g id="node5" class="node">
<title>e1</title>
<polygon fill="#00008b" fill-opacity="0.200000" stroke="#000000" points="756,-58 540,-58 540,0 756,0 756,-58"/>
<text text-anchor="middle" x="648" y="-24.8" font-family="Helvetica,sans-Serif" font-weight="bold" font-size="14.00" fill="#000000">n = 869,577</text>
</g>
<!-- b2 -->
<g id="node6" class="node">
<title>b2</title>
<polygon fill="#ff0000" fill-opacity="0.200000" stroke="#000000" points="811,-340 667,-340 667,-282 811,-282 811,-340"/>
<text text-anchor="middle" x="739" y="-306.8" font-family="Helvetica,sans-Serif" font-size="14.00" fill="#000000">n = 2</text>
</g>
<!-- c2 -->
<g id="node7" class="node">
<title>c2</title>
<polygon fill="#ff0000" fill-opacity="0.200000" stroke="#000000" points="811,-246 667,-246 667,-188 811,-188 811,-246"/>
<text text-anchor="middle" x="739" y="-212.8" font-family="Helvetica,sans-Serif" font-size="14.00" fill="#000000">n = 49,114</text>
</g>
<!-- d2 -->
<g id="node8" class="node">
<title>d2</title>
<polygon fill="#ff0000" fill-opacity="0.200000" stroke="#000000" points="811,-152 667,-152 667,-94 811,-94 811,-152"/>
<text text-anchor="middle" x="739" y="-118.8" font-family="Helvetica,sans-Serif" font-size="14.00" fill="#000000">n = 1,832</text>
</g>
<!-- b3 -->
<!-- a3&#45;&gt;b3 -->
<g id="edge8" class="edge">
<title>a3&#45;&gt;b3</title>
<path fill="none" stroke="#000000" d="M414,-375.7731C414,-350.3349 414,-316.7507 414,-311.6585"/>
</g>
<!-- e3 -->
<g id="node10" class="node">
<title>e3</title>
<polygon fill="#00008b" fill-opacity="0.200000" stroke="#000000" points="522,-58 306,-58 306,0 522,0 522,-58"/>
<text text-anchor="middle" x="414" y="-24.8" font-family="Helvetica,sans-Serif" font-weight="bold" font-size="14.00" fill="#000000">n = 3,999,541</text>
</g>
<!-- b4 -->
<g id="node11" class="node">
<title>b4</title>
<polygon fill="#ff0000" fill-opacity="0.200000" stroke="#000000" points="577,-340 433,-340 433,-282 577,-282 577,-340"/>
<text text-anchor="middle" x="505" y="-306.8" font-family="Helvetica,sans-Serif" font-size="14.00" fill="#000000">n = 307,682</text>
</g>
<!-- c4 -->
<g id="node12" class="node">
<title>c4</title>
<polygon fill="#ff0000" fill-opacity="0.200000" stroke="#000000" points="577,-246 433,-246 433,-188 577,-188 577,-246"/>
<text text-anchor="middle" x="505" y="-212.8" font-family="Helvetica,sans-Serif" font-size="14.00" fill="#000000">n = 660,404</text>
</g>
<!-- d4 -->
<g id="node13" class="node">
<title>d4</title>
<polygon fill="#ff0000" fill-opacity="0.200000" stroke="#000000" points="577,-152 433,-152 433,-94 577,-94 577,-152"/>
<text text-anchor="middle" x="505" y="-118.8" font-family="Helvetica,sans-Serif" font-size="14.00" fill="#000000">n = 23,388</text>
</g>
<!-- b1&#45;&gt;b2 -->
<g id="edge5" class="edge">
<title>b1&#45;&gt;b2</title>
<path fill="none" stroke="#000000" d="M648.7109,-311C651.3341,-311 653.9572,-311 656.5804,-311"/>
<polygon fill="#000000" stroke="#000000" points="656.6982,-314.5001 666.6982,-311 656.6982,-307.5001 656.6982,-314.5001"/>
</g>
<!-- c1 -->
<!-- b1&#45;&gt;c1 -->
<g id="edge2" class="edge">
<title>b1&#45;&gt;c1</title>
<path fill="none" stroke="#000000" d="M648,-310.3997C648,-302.7693 648,-224.8356 648,-217.5461"/>
</g>
<!-- c1&#45;&gt;c2 -->
<g id="edge6" class="edge">
<title>c1&#45;&gt;c2</title>
<path fill="none" stroke="#000000" d="M648.7109,-217C651.3341,-217 653.9572,-217 656.5804,-217"/>
<polygon fill="#000000" stroke="#000000" points="656.6982,-220.5001 666.6982,-217 656.6982,-213.5001 656.6982,-220.5001"/>
</g>
<!-- d1 -->
<!-- c1&#45;&gt;d1 -->
<g id="edge3" class="edge">
<title>c1&#45;&gt;d1</title>
<path fill="none" stroke="#000000" d="M648,-216.3997C648,-208.7693 648,-130.8356 648,-123.5461"/>
</g>
<!-- d1&#45;&gt;e1 -->
<g id="edge4" class="edge">
<title>d1&#45;&gt;e1</title>
<path fill="none" stroke="#000000" d="M648,-122.3997C648,-118.1501 648,-92.0946 648,-68.5807"/>
<polygon fill="#000000" stroke="#000000" points="651.5001,-68.3877 648,-58.3877 644.5001,-68.3877 651.5001,-68.3877"/>
</g>
<!-- d1&#45;&gt;d2 -->
<g id="edge7" class="edge">
<title>d1&#45;&gt;d2</title>
<path fill="none" stroke="#000000" d="M648.7109,-123C651.3341,-123 653.9572,-123 656.5804,-123"/>
<polygon fill="#000000" stroke="#000000" points="656.6982,-126.5001 666.6982,-123 656.6982,-119.5001 656.6982,-126.5001"/>
</g>
<!-- b3&#45;&gt;b4 -->
<g id="edge12" class="edge">
<title>b3&#45;&gt;b4</title>
<path fill="none" stroke="#000000" d="M414.7109,-311C417.3341,-311 419.9572,-311 422.5804,-311"/>
<polygon fill="#000000" stroke="#000000" points="422.6982,-314.5001 432.6982,-311 422.6982,-307.5001 422.6982,-314.5001"/>
</g>
<!-- c3 -->
<!-- b3&#45;&gt;c3 -->
<g id="edge9" class="edge">
<title>b3&#45;&gt;c3</title>
<path fill="none" stroke="#000000" d="M414,-310.3997C414,-302.7693 414,-224.8356 414,-217.5461"/>
</g>
<!-- c3&#45;&gt;c4 -->
<g id="edge13" class="edge">
<title>c3&#45;&gt;c4</title>
<path fill="none" stroke="#000000" d="M414.7109,-217C417.3341,-217 419.9572,-217 422.5804,-217"/>
<polygon fill="#000000" stroke="#000000" points="422.6982,-220.5001 432.6982,-217 422.6982,-213.5001 422.6982,-220.5001"/>
</g>
<!-- d3 -->
<!-- c3&#45;&gt;d3 -->
<g id="edge10" class="edge">
<title>c3&#45;&gt;d3</title>
<path fill="none" stroke="#000000" d="M414,-216.3997C414,-208.7693 414,-130.8356 414,-123.5461"/>
</g>
<!-- d3&#45;&gt;e3 -->
<g id="edge11" class="edge">
<title>d3&#45;&gt;e3</title>
<path fill="none" stroke="#000000" d="M414,-122.3997C414,-118.1501 414,-92.0946 414,-68.5807"/>
<polygon fill="#000000" stroke="#000000" points="417.5001,-68.3877 414,-58.3877 410.5001,-68.3877 417.5001,-68.3877"/>
</g>
<!-- d3&#45;&gt;d4 -->
<g id="edge14" class="edge">
<title>d3&#45;&gt;d4</title>
<path fill="none" stroke="#000000" d="M414.7109,-123C417.3341,-123 419.9572,-123 422.5804,-123"/>
<polygon fill="#000000" stroke="#000000" points="422.6982,-126.5001 432.6982,-123 422.6982,-119.5001 422.6982,-126.5001"/>
</g>
<!-- desc2 -->
<g id="node21" class="node">
<title>desc2</title>
<polygon fill="#ffffff" stroke="#000000" points="270,-340 18,-340 18,-282 270,-282 270,-340"/>
<text text-anchor="middle" x="144" y="-306.8" font-family="Helvetica,sans-Serif" font-size="14.00" fill="#000000">Missing information about age or sex</text>
</g>
<!-- desc1&#45;&gt;desc2 -->
<!-- desc3 -->
<g id="node22" class="node">
<title>desc3</title>
<polygon fill="#ffffff" stroke="#000000" points="270,-246 18,-246 18,-188 270,-188 270,-246"/>
<text text-anchor="middle" x="144" y="-221.2" font-family="Helvetica,sans-Serif" font-size="14.00" fill="#000000">Insufficient look&#45;back window</text>
<text text-anchor="middle" x="144" y="-204.4" font-family="Helvetica,sans-Serif" font-size="14.00" fill="#000000"> (&gt;365 days)</text>
</g>
<!-- desc2&#45;&gt;desc3 -->
<!-- desc4 -->
<g id="node23" class="node">
<title>desc4</title>
<polygon fill="#ffffff" stroke="#000000" points="270,-152 18,-152 18,-94 270,-94 270,-152"/>
<text text-anchor="middle" x="144" y="-127.2" font-family="Helvetica,sans-Serif" font-size="14.00" fill="#000000">Incident use not captured</text>
<text text-anchor="middle" x="144" y="-110.4" font-family="Helvetica,sans-Serif" font-size="14.00" fill="#000000"> (&gt;30 days of antibiotic&#45;free period)</text>
</g>
<!-- desc3&#45;&gt;desc4 -->
<!-- desc5 -->
<g id="node24" class="node">
<title>desc5</title>
<polygon fill="#ffffff" stroke="#000000" points="270,-58 18,-58 18,0 270,0 270,-58"/>
<text text-anchor="middle" x="144" y="-24.8" font-family="Helvetica,sans-Serif" font-size="14.00" fill="#000000">Included patients</text>
</g>
<!-- desc4&#45;&gt;desc5 -->
</g>
</svg>

